<svg width="124" height="191" viewBox="0 0 124 191" fill="none" xmlns="http://www.w3.org/2000/svg">
<rect width="124" height="191" rx="2" fill="white" fill-opacity="0.8"/>
<path d="M19.959 23H14.1211V13.1973H16.3291V21.209H19.959V23ZM27.3623 20.1152H22.7959C22.8688 21.1315 23.5091 21.6396 24.7168 21.6396C25.487 21.6396 26.1637 21.4574 26.7471 21.0928V22.6514C26.0999 22.9977 25.2591 23.1709 24.2246 23.1709C23.0944 23.1709 22.2171 22.8587 21.5928 22.2344C20.9684 21.6055 20.6562 20.7305 20.6562 19.6094C20.6562 18.4473 20.9935 17.5267 21.668 16.8477C22.3424 16.1686 23.1719 15.8291 24.1562 15.8291C25.1771 15.8291 25.9655 16.1322 26.5215 16.7383C27.082 17.3444 27.3623 18.167 27.3623 19.2061V20.1152ZM25.3594 18.7891C25.3594 17.7865 24.9538 17.2852 24.1426 17.2852C23.7962 17.2852 23.4954 17.4287 23.2402 17.7158C22.9896 18.0029 22.8369 18.3607 22.7822 18.7891H25.3594ZM35.5107 22.2002C35.5107 23.499 35.1348 24.5039 34.3828 25.2148C33.6309 25.9303 32.5417 26.2881 31.1152 26.2881C30.1719 26.2881 29.4245 26.1536 28.873 25.8848V24.0664C29.5931 24.4857 30.32 24.6953 31.0537 24.6953C31.7829 24.6953 32.348 24.5016 32.749 24.1143C33.1501 23.7314 33.3506 23.2096 33.3506 22.5488V21.9951H33.3232C32.8311 22.779 32.1042 23.1709 31.1426 23.1709C30.2493 23.1709 29.5407 22.8564 29.0166 22.2275C28.4925 21.5986 28.2305 20.7555 28.2305 19.6982C28.2305 18.5133 28.5221 17.5723 29.1055 16.875C29.6888 16.1777 30.4567 15.8291 31.4092 15.8291C32.2614 15.8291 32.8994 16.1572 33.3232 16.8135H33.3506V16H35.5107V22.2002ZM33.3779 19.6367V19.083C33.3779 18.641 33.2458 18.265 32.9814 17.9551C32.7217 17.6406 32.3822 17.4834 31.9629 17.4834C31.4844 17.4834 31.1084 17.6702 30.835 18.0439C30.5615 18.4176 30.4248 18.944 30.4248 19.623C30.4248 20.2064 30.5547 20.6689 30.8145 21.0107C31.0742 21.348 31.4297 21.5166 31.8809 21.5166C32.3275 21.5166 32.6875 21.3457 32.9609 21.0039C33.2389 20.6576 33.3779 20.2018 33.3779 19.6367ZM43.6045 20.1152H39.0381C39.111 21.1315 39.7513 21.6396 40.959 21.6396C41.7292 21.6396 42.4059 21.4574 42.9893 21.0928V22.6514C42.3421 22.9977 41.5013 23.1709 40.4668 23.1709C39.3366 23.1709 38.4593 22.8587 37.835 22.2344C37.2106 21.6055 36.8984 20.7305 36.8984 19.6094C36.8984 18.4473 37.2357 17.5267 37.9102 16.8477C38.5846 16.1686 39.4141 15.8291 40.3984 15.8291C41.4193 15.8291 42.2077 16.1322 42.7637 16.7383C43.3242 17.3444 43.6045 18.167 43.6045 19.2061V20.1152ZM41.6016 18.7891C41.6016 17.7865 41.196 17.2852 40.3848 17.2852C40.0384 17.2852 39.7376 17.4287 39.4824 17.7158C39.2318 18.0029 39.0791 18.3607 39.0244 18.7891H41.6016ZM51.6504 23H49.4971V19.1104C49.4971 18.0257 49.1097 17.4834 48.335 17.4834C47.9613 17.4834 47.6536 17.627 47.4121 17.9141C47.1706 18.2012 47.0498 18.5658 47.0498 19.0078V23H44.8896V16H47.0498V17.1074H47.0771C47.5921 16.2552 48.3418 15.8291 49.3262 15.8291C50.8757 15.8291 51.6504 16.7907 51.6504 18.7139V23ZM60.2158 23H58.0557V22.0361H58.0283C57.5361 22.7926 56.8138 23.1709 55.8613 23.1709C54.9863 23.1709 54.2822 22.8633 53.749 22.248C53.2158 21.6283 52.9492 20.7646 52.9492 19.6572C52.9492 18.4997 53.2432 17.5723 53.8311 16.875C54.4189 16.1777 55.1891 15.8291 56.1416 15.8291C57.0439 15.8291 57.6729 16.1527 58.0283 16.7998H58.0557V12.6367H60.2158V23ZM58.0967 19.5957V19.0693C58.0967 18.6136 57.9645 18.2354 57.7002 17.9346C57.4359 17.6338 57.0918 17.4834 56.668 17.4834C56.1895 17.4834 55.8158 17.6725 55.5469 18.0508C55.278 18.4245 55.1436 18.9395 55.1436 19.5957C55.1436 20.2109 55.2734 20.6849 55.5332 21.0176C55.793 21.3503 56.153 21.5166 56.6133 21.5166C57.0508 21.5166 57.4062 21.3411 57.6797 20.9902C57.9577 20.6393 58.0967 20.1745 58.0967 19.5957Z" fill="#1C1C1C"/>
<path d="M66.5449 23.751H65.4922C64.3607 22.4834 63.7949 20.9204 63.7949 19.062C63.7949 17.1965 64.3607 15.6084 65.4922 14.2979H66.5503C65.4403 15.6585 64.8853 17.243 64.8853 19.0513C64.8853 20.8452 65.4385 22.4118 66.5449 23.751ZM72.4531 22H70.874L68.7363 19.3574H68.7148V22H67.4634V13.8574H68.7148V19.019H68.7363L70.7559 16.5H72.2544L69.9824 19.1533L72.4531 22ZM78.0552 21.5596C78.0552 23.5791 77.04 24.5889 75.0098 24.5889C74.2936 24.5889 73.6688 24.4689 73.1353 24.229V23.0903C73.7368 23.4341 74.3079 23.606 74.8486 23.606C76.1556 23.606 76.8091 22.9632 76.8091 21.6777V21.0762H76.7876C76.3758 21.778 75.7563 22.1289 74.9292 22.1289C74.2596 22.1289 73.7189 21.8854 73.3071 21.3984C72.8989 20.9079 72.6948 20.2508 72.6948 19.4272C72.6948 18.4927 72.915 17.7497 73.3555 17.1982C73.7959 16.6468 74.401 16.3711 75.1709 16.3711C75.8978 16.3711 76.4367 16.6683 76.7876 17.2627H76.8091V16.5H78.0552V21.5596ZM76.8198 19.481V18.7666C76.8198 18.3799 76.6909 18.0505 76.4331 17.7783C76.1789 17.5026 75.8602 17.3647 75.4771 17.3647C75.0044 17.3647 74.6338 17.5402 74.3652 17.8911C74.1003 18.2384 73.9678 18.7254 73.9678 19.3521C73.9678 19.8927 74.0949 20.326 74.3491 20.6519C74.6069 20.9741 74.9471 21.1353 75.3696 21.1353C75.7993 21.1353 76.1484 20.9813 76.417 20.6733C76.6855 20.3618 76.8198 19.9644 76.8198 19.481ZM83.5229 14.2979L79.8008 23.2783H78.6675L82.3735 14.2979H83.5229ZM92.4551 22H91.209V19.0029C91.209 18.4264 91.1266 18.0093 90.9619 17.7515C90.8008 17.4937 90.5269 17.3647 90.1401 17.3647C89.8143 17.3647 89.5368 17.5277 89.3076 17.8535C89.082 18.1794 88.9692 18.5697 88.9692 19.0244V22H87.7178V18.9009C87.7178 17.8768 87.3561 17.3647 86.6328 17.3647C86.2962 17.3647 86.0187 17.5187 85.8003 17.8267C85.5854 18.1346 85.478 18.5339 85.478 19.0244V22H84.2319V16.5H85.478V17.3701H85.4995C85.897 16.7041 86.4753 16.3711 87.2344 16.3711C87.6139 16.3711 87.9451 16.4767 88.228 16.688C88.5145 16.8957 88.7096 17.1696 88.8135 17.5098C89.2217 16.7507 89.8304 16.3711 90.6396 16.3711C91.8499 16.3711 92.4551 17.1177 92.4551 18.6108V22ZM98.5244 22H93.6904V21.4038C93.6904 21.1603 93.7244 20.9329 93.7925 20.7217C93.8605 20.5068 93.9518 20.3063 94.0664 20.1201C94.181 19.9303 94.3153 19.7531 94.4692 19.5884C94.6232 19.4201 94.7879 19.259 94.9634 19.105C95.1388 18.9474 95.3179 18.797 95.5005 18.6538C95.6831 18.507 95.8621 18.3602 96.0376 18.2134C96.2023 18.0737 96.3527 17.9377 96.4888 17.8052C96.6248 17.6691 96.7412 17.5295 96.8379 17.3862C96.9346 17.243 97.0098 17.0926 97.0635 16.9351C97.1172 16.7739 97.144 16.6003 97.144 16.4141C97.144 16.21 97.1118 16.0327 97.0474 15.8823C96.9865 15.7284 96.8988 15.6012 96.7842 15.501C96.6732 15.3971 96.5407 15.3201 96.3867 15.27C96.2327 15.2163 96.0645 15.1895 95.8818 15.1895C95.5667 15.1895 95.2463 15.2629 94.9204 15.4097C94.5946 15.5565 94.2812 15.7767 93.9805 16.0703V14.8726C94.138 14.7544 94.2974 14.6523 94.4585 14.5664C94.6196 14.4769 94.7861 14.4035 94.958 14.3462C95.1299 14.2853 95.3107 14.2406 95.5005 14.2119C95.6903 14.1833 95.8926 14.1689 96.1074 14.1689C96.4548 14.1689 96.7699 14.2155 97.0527 14.3086C97.3356 14.3981 97.5773 14.5324 97.7778 14.7114C97.9784 14.8869 98.1323 15.1071 98.2397 15.3721C98.3507 15.637 98.4062 15.9414 98.4062 16.2852C98.4062 16.5967 98.3669 16.8778 98.2881 17.1284C98.2129 17.3755 98.1037 17.6064 97.9604 17.8213C97.8208 18.0361 97.6507 18.2402 97.4502 18.4336C97.2497 18.627 97.0259 18.8257 96.7788 19.0298C96.5711 19.1981 96.3634 19.3628 96.1558 19.5239C95.9517 19.6815 95.7673 19.8372 95.6025 19.9912C95.4378 20.1416 95.3035 20.2938 95.1997 20.4478C95.0994 20.5981 95.0493 20.7503 95.0493 20.9043V20.9312H98.5244V22ZM103.933 14.2979L100.211 23.2783H99.0776L102.784 14.2979H103.933ZM104.298 21.8281V20.6733C104.764 21.0278 105.278 21.2051 105.84 21.2051C106.592 21.2051 106.968 20.9831 106.968 20.5391C106.968 20.4137 106.936 20.3081 106.871 20.2222C106.807 20.1326 106.719 20.0539 106.608 19.9858C106.5 19.9178 106.372 19.8569 106.221 19.8032C106.074 19.7495 105.91 19.6886 105.727 19.6206C105.501 19.5311 105.297 19.4362 105.115 19.3359C104.936 19.2357 104.785 19.1229 104.664 18.9976C104.545 18.8687 104.456 18.7236 104.395 18.5625C104.334 18.4014 104.304 18.2134 104.304 17.9985C104.304 17.7336 104.366 17.5008 104.492 17.3003C104.617 17.0962 104.785 16.9261 104.997 16.79C105.208 16.6504 105.448 16.5465 105.716 16.4785C105.985 16.4069 106.262 16.3711 106.549 16.3711C107.057 16.3711 107.512 16.4481 107.913 16.6021V17.6924C107.526 17.4274 107.082 17.2949 106.581 17.2949C106.424 17.2949 106.28 17.311 106.151 17.3433C106.026 17.3755 105.919 17.4202 105.829 17.4775C105.74 17.5348 105.67 17.6047 105.62 17.687C105.569 17.7658 105.544 17.8535 105.544 17.9502C105.544 18.0684 105.569 18.1686 105.62 18.251C105.67 18.3333 105.743 18.4067 105.84 18.4712C105.94 18.5321 106.058 18.5894 106.194 18.6431C106.334 18.6932 106.493 18.7487 106.672 18.8096C106.909 18.9062 107.12 19.0047 107.306 19.105C107.496 19.2052 107.657 19.3198 107.79 19.4487C107.922 19.5741 108.024 19.7209 108.096 19.8892C108.167 20.0539 108.203 20.2508 108.203 20.48C108.203 20.7593 108.139 21.0028 108.01 21.2104C107.881 21.4181 107.709 21.59 107.494 21.7261C107.279 21.8621 107.03 21.9624 106.748 22.0269C106.468 22.0949 106.173 22.1289 105.861 22.1289C105.26 22.1289 104.739 22.0286 104.298 21.8281ZM109.745 23.751H108.692C109.802 22.4118 110.357 20.8452 110.357 19.0513C110.357 17.243 109.8 15.6585 108.687 14.2979H109.75C110.885 15.6084 111.453 17.1965 111.453 19.062C111.453 20.9204 110.883 22.4834 109.745 23.751Z" fill="#1C1C1C"/>
<path d="M47.2422 55H46.2812V47.7402C46.207 47.8145 46.0977 47.9004 45.9531 47.998C45.8125 48.0918 45.6523 48.1855 45.4727 48.2793C45.2969 48.373 45.1094 48.4609 44.9102 48.543C44.7148 48.625 44.5234 48.6895 44.3359 48.7363V47.7637C44.5469 47.7051 44.7695 47.627 45.0039 47.5293C45.2422 47.4277 45.4746 47.3164 45.7012 47.1953C45.9316 47.0703 46.1484 46.9414 46.3516 46.8086C46.5547 46.6719 46.7305 46.5391 46.8789 46.4102H47.2422V55ZM55.2637 52.2402H51.0273C51.043 52.9082 51.2227 53.4238 51.5664 53.7871C51.9102 54.1504 52.3828 54.332 52.9844 54.332C53.6602 54.332 54.2812 54.1094 54.8477 53.6641V54.5664C54.3203 54.9492 53.623 55.1406 52.7559 55.1406C51.9082 55.1406 51.2422 54.8691 50.7578 54.3262C50.2734 53.7793 50.0312 53.0117 50.0312 52.0234C50.0312 51.0898 50.2949 50.3301 50.8223 49.7441C51.3535 49.1543 52.0117 48.8594 52.7969 48.8594C53.582 48.8594 54.1895 49.1133 54.6191 49.6211C55.0488 50.1289 55.2637 50.834 55.2637 51.7363V52.2402ZM54.2793 51.4258C54.2754 50.8711 54.1406 50.4395 53.875 50.1309C53.6133 49.8223 53.248 49.668 52.7793 49.668C52.3262 49.668 51.9414 49.8301 51.625 50.1543C51.3086 50.4785 51.1133 50.9023 51.0391 51.4258H54.2793ZM59.793 52.0352H56.5938V51.2793H59.793V52.0352ZM66.4727 47.1543C66.3438 47.377 66.1875 47.6543 66.0039 47.9863C65.8242 48.3184 65.6328 48.6914 65.4297 49.1055C65.2266 49.5195 65.0195 49.9648 64.8086 50.4414C64.5977 50.918 64.4004 51.4102 64.2168 51.918C64.0332 52.4258 63.8711 52.9414 63.7305 53.4648C63.5938 53.9844 63.4941 54.4961 63.4316 55H62.4004C62.4707 54.5 62.5781 53.9902 62.7227 53.4707C62.8711 52.9473 63.0371 52.4355 63.2207 51.9355C63.4082 51.4316 63.6055 50.9473 63.8125 50.4824C64.0195 50.0176 64.2207 49.5898 64.416 49.1992C64.6113 48.8086 64.7891 48.4648 64.9492 48.168C65.1133 47.8672 65.2441 47.6328 65.3418 47.4648H61.1289V46.5977H66.4727V47.1543Z" fill="#212020"/>
<path d="M48.9883 73.334C48.9883 73.7441 48.9219 74.1211 48.7891 74.4648C48.6562 74.8086 48.4727 75.1055 48.2383 75.3555C48.0039 75.6055 47.7246 75.8008 47.4004 75.9414C47.0762 76.0781 46.7246 76.1465 46.3457 76.1465C45.9238 76.1465 45.5449 76.0586 45.209 75.8828C44.877 75.707 44.5938 75.4551 44.3594 75.127C44.1289 74.7949 43.9531 74.3906 43.832 73.9141C43.7109 73.4375 43.6504 72.9004 43.6504 72.3027C43.6504 71.5723 43.7305 70.9102 43.8906 70.3164C44.0547 69.7188 44.2852 69.209 44.582 68.7871C44.8828 68.3613 45.2441 68.0332 45.666 67.8027C46.0879 67.5723 46.5586 67.457 47.0781 67.457C47.6562 67.457 48.1211 67.5371 48.4727 67.6973V68.6055C48.0391 68.3828 47.582 68.2715 47.1016 68.2715C46.7266 68.2715 46.3887 68.3555 46.0879 68.5234C45.7871 68.6914 45.5293 68.9297 45.3145 69.2383C45.0996 69.543 44.9336 69.9121 44.8164 70.3457C44.7031 70.7793 44.6465 71.2617 44.6465 71.793H44.6699C45.0566 71.0938 45.6953 70.7441 46.5859 70.7441C46.9531 70.7441 47.2832 70.8066 47.5762 70.9316C47.873 71.0566 48.125 71.2344 48.332 71.4648C48.543 71.6914 48.7051 71.9629 48.8184 72.2793C48.9316 72.5957 48.9883 72.9473 48.9883 73.334ZM48.0039 73.457C48.0039 73.1641 47.9668 72.9004 47.8926 72.666C47.8184 72.4316 47.7109 72.2324 47.5703 72.0684C47.4336 71.9043 47.2637 71.7793 47.0605 71.6934C46.8574 71.6035 46.627 71.5586 46.3691 71.5586C46.1309 71.5586 45.9102 71.6035 45.707 71.6934C45.5039 71.7832 45.3281 71.9062 45.1797 72.0625C45.0312 72.2148 44.9141 72.3945 44.8281 72.6016C44.7461 72.8047 44.7051 73.0215 44.7051 73.252C44.7051 73.541 44.7461 73.8125 44.8281 74.0664C44.9102 74.3164 45.0254 74.5352 45.1738 74.7227C45.3223 74.9102 45.498 75.0586 45.7012 75.168C45.9082 75.2734 46.1367 75.3262 46.3867 75.3262C46.6289 75.3262 46.8496 75.2812 47.0488 75.1914C47.248 75.0977 47.418 74.9688 47.5586 74.8047C47.6992 74.6406 47.8086 74.4453 47.8867 74.2188C47.9648 73.9883 48.0039 73.7344 48.0039 73.457ZM50.7754 76.1289C50.5957 76.1289 50.4414 76.0645 50.3125 75.9355C50.1875 75.8066 50.125 75.6523 50.125 75.4727C50.125 75.293 50.1875 75.1387 50.3125 75.0098C50.4414 74.877 50.5957 74.8105 50.7754 74.8105C50.959 74.8105 51.1152 74.877 51.2441 75.0098C51.373 75.1387 51.4375 75.293 51.4375 75.4727C51.4375 75.6523 51.373 75.8066 51.2441 75.9355C51.1152 76.0645 50.959 76.1289 50.7754 76.1289ZM57.9883 68.1543C57.8594 68.377 57.7031 68.6543 57.5195 68.9863C57.3398 69.3184 57.1484 69.6914 56.9453 70.1055C56.7422 70.5195 56.5352 70.9648 56.3242 71.4414C56.1133 71.918 55.916 72.4102 55.7324 72.918C55.5488 73.4258 55.3867 73.9414 55.2461 74.4648C55.1094 74.9844 55.0098 75.4961 54.9473 76H53.916C53.9863 75.5 54.0938 74.9902 54.2383 74.4707C54.3867 73.9473 54.5527 73.4355 54.7363 72.9355C54.9238 72.4316 55.1211 71.9473 55.3281 71.4824C55.5352 71.0176 55.7363 70.5898 55.9316 70.1992C56.127 69.8086 56.3047 69.4648 56.4648 69.168C56.6289 68.8672 56.7598 68.6328 56.8574 68.4648H52.6445V67.5977H57.9883V68.1543ZM64.334 73.2402H60.0977C60.1133 73.9082 60.293 74.4238 60.6367 74.7871C60.9805 75.1504 61.4531 75.332 62.0547 75.332C62.7305 75.332 63.3516 75.1094 63.918 74.6641V75.5664C63.3906 75.9492 62.6934 76.1406 61.8262 76.1406C60.9785 76.1406 60.3125 75.8691 59.8281 75.3262C59.3438 74.7793 59.1016 74.0117 59.1016 73.0234C59.1016 72.0898 59.3652 71.3301 59.8926 70.7441C60.4238 70.1543 61.082 69.8594 61.8672 69.8594C62.6523 69.8594 63.2598 70.1133 63.6895 70.6211C64.1191 71.1289 64.334 71.834 64.334 72.7363V73.2402ZM63.3496 72.4258C63.3457 71.8711 63.2109 71.4395 62.9453 71.1309C62.6836 70.8223 62.3184 70.668 61.8496 70.668C61.3965 70.668 61.0117 70.8301 60.6953 71.1543C60.3789 71.4785 60.1836 71.9023 60.1094 72.4258H63.3496ZM68.8633 73.0352H65.6641V72.2793H68.8633V73.0352ZM70.1523 73.6562C70.1523 73.4336 70.1875 73.2109 70.2578 72.9883C70.3281 72.7617 70.4277 72.5508 70.5566 72.3555C70.6895 72.1602 70.8516 71.9824 71.043 71.8223C71.2383 71.6621 71.459 71.5352 71.7051 71.4414C71.3418 71.2383 71.0527 70.9785 70.8379 70.6621C70.623 70.3418 70.5156 69.9883 70.5156 69.6016C70.5156 69.293 70.5742 69.0078 70.6914 68.7461C70.8125 68.4844 70.9785 68.2578 71.1895 68.0664C71.4004 67.875 71.6504 67.7266 71.9395 67.6211C72.2285 67.5117 72.541 67.457 72.877 67.457C73.2168 67.457 73.5312 67.5117 73.8203 67.6211C74.1094 67.7305 74.3594 67.8809 74.5703 68.0723C74.7812 68.2637 74.9453 68.4902 75.0625 68.752C75.1797 69.0137 75.2383 69.2969 75.2383 69.6016C75.2383 69.9883 75.1309 70.3418 74.916 70.6621C74.7012 70.9785 74.416 71.2383 74.0605 71.4414C74.3027 71.5352 74.5195 71.6621 74.7109 71.8223C74.9023 71.9824 75.0625 72.1602 75.1914 72.3555C75.3242 72.5508 75.4258 72.7617 75.4961 72.9883C75.5664 73.2109 75.6016 73.4336 75.6016 73.6562C75.6016 74.0234 75.5352 74.3594 75.4023 74.6641C75.2695 74.9688 75.082 75.2305 74.8398 75.4492C74.6016 75.6641 74.3145 75.832 73.9785 75.9531C73.6465 76.0742 73.2793 76.1348 72.877 76.1348C72.4785 76.1348 72.1133 76.0742 71.7812 75.9531C71.4492 75.832 71.1621 75.6641 70.9199 75.4492C70.6777 75.2305 70.4883 74.9688 70.3516 74.6641C70.2188 74.3594 70.1523 74.0234 70.1523 73.6562ZM71.1953 73.5742C71.1953 73.8359 71.2344 74.0723 71.3125 74.2832C71.3945 74.4941 71.5078 74.6738 71.6523 74.8223C71.8008 74.9707 71.9785 75.0859 72.1855 75.168C72.3965 75.2461 72.6289 75.2852 72.8828 75.2852C73.1289 75.2852 73.3555 75.2441 73.5625 75.1621C73.7695 75.0801 73.9473 74.9648 74.0957 74.8164C74.248 74.668 74.3652 74.4883 74.4473 74.2773C74.5332 74.0664 74.5762 73.832 74.5762 73.5742C74.5762 73.3398 74.5352 73.1211 74.4531 72.918C74.375 72.7109 74.2617 72.5293 74.1133 72.373C73.9648 72.2168 73.7871 72.0938 73.5801 72.0039C73.373 71.9141 73.1406 71.8691 72.8828 71.8691C72.6406 71.8691 72.416 71.9121 72.209 71.998C72.0059 72.0801 71.8281 72.1973 71.6758 72.3496C71.5273 72.498 71.4102 72.6777 71.3242 72.8887C71.2383 73.0957 71.1953 73.3242 71.1953 73.5742ZM71.4941 69.6777C71.4941 69.877 71.5293 70.0625 71.5996 70.2344C71.6738 70.4023 71.7734 70.5508 71.8984 70.6797C72.0273 70.8047 72.1758 70.9043 72.3438 70.9785C72.5117 71.0488 72.6914 71.084 72.8828 71.084C73.0742 71.084 73.2539 71.0469 73.4219 70.9727C73.5938 70.8984 73.7422 70.7988 73.8672 70.6738C73.9922 70.5449 74.0918 70.3965 74.166 70.2285C74.2402 70.0566 74.2773 69.873 74.2773 69.6777C74.2773 69.4746 74.2402 69.2871 74.166 69.1152C74.0957 68.9434 73.998 68.7949 73.873 68.6699C73.748 68.5449 73.5996 68.4473 73.4277 68.377C73.2598 68.3027 73.0781 68.2656 72.8828 68.2656C72.6758 68.2656 72.4863 68.3027 72.3145 68.377C72.1465 68.4512 72 68.5527 71.875 68.6816C71.7539 68.8066 71.6602 68.9551 71.5938 69.127C71.5273 69.2988 71.4941 69.4824 71.4941 69.6777Z" fill="#212020"/>
<path d="M48.584 93.6211C48.584 94 48.5117 94.3457 48.3672 94.6582C48.2266 94.9668 48.0254 95.2324 47.7637 95.4551C47.5059 95.6738 47.1953 95.8438 46.832 95.9648C46.4688 96.0859 46.0684 96.1465 45.6309 96.1465C44.8301 96.1465 44.1934 95.9941 43.7207 95.6895V94.6582C44.2871 95.1035 44.9355 95.3262 45.666 95.3262C45.959 95.3262 46.2227 95.2891 46.457 95.2148C46.6953 95.1406 46.8984 95.0332 47.0664 94.8926C47.2383 94.752 47.3691 94.582 47.459 94.3828C47.5527 94.1836 47.5996 93.959 47.5996 93.709C47.5996 92.6113 46.8184 92.0625 45.2559 92.0625H44.5586V91.248H45.2207C46.6035 91.248 47.2949 90.7324 47.2949 89.7012C47.2949 88.748 46.7676 88.2715 45.7129 88.2715C45.1191 88.2715 44.5625 88.4707 44.043 88.8691V87.9375C44.5781 87.6172 45.2148 87.457 45.9531 87.457C46.3047 87.457 46.623 87.5059 46.9082 87.6035C47.1934 87.7012 47.4375 87.8379 47.6406 88.0137C47.8438 88.1895 48 88.4004 48.1094 88.6465C48.2227 88.8926 48.2793 89.1641 48.2793 89.4609C48.2793 90.5664 47.7207 91.2773 46.6035 91.5938V91.6172C46.8887 91.6484 47.1523 91.7188 47.3945 91.8281C47.6367 91.9336 47.8457 92.0723 48.0215 92.2441C48.1973 92.416 48.334 92.6191 48.4316 92.8535C48.5332 93.084 48.584 93.3398 48.584 93.6211ZM50.7754 96.1289C50.5957 96.1289 50.4414 96.0645 50.3125 95.9355C50.1875 95.8066 50.125 95.6523 50.125 95.4727C50.125 95.293 50.1875 95.1387 50.3125 95.0098C50.4414 94.877 50.5957 94.8105 50.7754 94.8105C50.959 94.8105 51.1152 94.877 51.2441 95.0098C51.373 95.1387 51.4375 95.293 51.4375 95.4727C51.4375 95.6523 51.373 95.8066 51.2441 95.9355C51.1152 96.0645 50.959 96.1289 50.7754 96.1289ZM57.6543 93.6211C57.6543 94 57.582 94.3457 57.4375 94.6582C57.2969 94.9668 57.0957 95.2324 56.834 95.4551C56.5762 95.6738 56.2656 95.8438 55.9023 95.9648C55.5391 96.0859 55.1387 96.1465 54.7012 96.1465C53.9004 96.1465 53.2637 95.9941 52.791 95.6895V94.6582C53.3574 95.1035 54.0059 95.3262 54.7363 95.3262C55.0293 95.3262 55.293 95.2891 55.5273 95.2148C55.7656 95.1406 55.9688 95.0332 56.1367 94.8926C56.3086 94.752 56.4395 94.582 56.5293 94.3828C56.623 94.1836 56.6699 93.959 56.6699 93.709C56.6699 92.6113 55.8887 92.0625 54.3262 92.0625H53.6289V91.248H54.291C55.6738 91.248 56.3652 90.7324 56.3652 89.7012C56.3652 88.748 55.8379 88.2715 54.7832 88.2715C54.1895 88.2715 53.6328 88.4707 53.1133 88.8691V87.9375C53.6484 87.6172 54.2852 87.457 55.0234 87.457C55.375 87.457 55.6934 87.5059 55.9785 87.6035C56.2637 87.7012 56.5078 87.8379 56.7109 88.0137C56.9141 88.1895 57.0703 88.4004 57.1797 88.6465C57.293 88.8926 57.3496 89.1641 57.3496 89.4609C57.3496 90.5664 56.791 91.2773 55.6738 91.5938V91.6172C55.959 91.6484 56.2227 91.7188 56.4648 91.8281C56.707 91.9336 56.916 92.0723 57.0918 92.2441C57.2676 92.416 57.4043 92.6191 57.502 92.8535C57.6035 93.084 57.6543 93.3398 57.6543 93.6211ZM64.334 93.2402H60.0977C60.1133 93.9082 60.293 94.4238 60.6367 94.7871C60.9805 95.1504 61.4531 95.332 62.0547 95.332C62.7305 95.332 63.3516 95.1094 63.918 94.6641V95.5664C63.3906 95.9492 62.6934 96.1406 61.8262 96.1406C60.9785 96.1406 60.3125 95.8691 59.8281 95.3262C59.3438 94.7793 59.1016 94.0117 59.1016 93.0234C59.1016 92.0898 59.3652 91.3301 59.8926 90.7441C60.4238 90.1543 61.082 89.8594 61.8672 89.8594C62.6523 89.8594 63.2598 90.1133 63.6895 90.6211C64.1191 91.1289 64.334 91.834 64.334 92.7363V93.2402ZM63.3496 92.4258C63.3457 91.8711 63.2109 91.4395 62.9453 91.1309C62.6836 90.8223 62.3184 90.668 61.8496 90.668C61.3965 90.668 61.0117 90.8301 60.6953 91.1543C60.3789 91.4785 60.1836 91.9023 60.1094 92.4258H63.3496ZM68.8633 93.0352H65.6641V92.2793H68.8633V93.0352ZM70.1523 93.6562C70.1523 93.4336 70.1875 93.2109 70.2578 92.9883C70.3281 92.7617 70.4277 92.5508 70.5566 92.3555C70.6895 92.1602 70.8516 91.9824 71.043 91.8223C71.2383 91.6621 71.459 91.5352 71.7051 91.4414C71.3418 91.2383 71.0527 90.9785 70.8379 90.6621C70.623 90.3418 70.5156 89.9883 70.5156 89.6016C70.5156 89.293 70.5742 89.0078 70.6914 88.7461C70.8125 88.4844 70.9785 88.2578 71.1895 88.0664C71.4004 87.875 71.6504 87.7266 71.9395 87.6211C72.2285 87.5117 72.541 87.457 72.877 87.457C73.2168 87.457 73.5312 87.5117 73.8203 87.6211C74.1094 87.7305 74.3594 87.8809 74.5703 88.0723C74.7812 88.2637 74.9453 88.4902 75.0625 88.752C75.1797 89.0137 75.2383 89.2969 75.2383 89.6016C75.2383 89.9883 75.1309 90.3418 74.916 90.6621C74.7012 90.9785 74.416 91.2383 74.0605 91.4414C74.3027 91.5352 74.5195 91.6621 74.7109 91.8223C74.9023 91.9824 75.0625 92.1602 75.1914 92.3555C75.3242 92.5508 75.4258 92.7617 75.4961 92.9883C75.5664 93.2109 75.6016 93.4336 75.6016 93.6562C75.6016 94.0234 75.5352 94.3594 75.4023 94.6641C75.2695 94.9688 75.082 95.2305 74.8398 95.4492C74.6016 95.6641 74.3145 95.832 73.9785 95.9531C73.6465 96.0742 73.2793 96.1348 72.877 96.1348C72.4785 96.1348 72.1133 96.0742 71.7812 95.9531C71.4492 95.832 71.1621 95.6641 70.9199 95.4492C70.6777 95.2305 70.4883 94.9688 70.3516 94.6641C70.2188 94.3594 70.1523 94.0234 70.1523 93.6562ZM71.1953 93.5742C71.1953 93.8359 71.2344 94.0723 71.3125 94.2832C71.3945 94.4941 71.5078 94.6738 71.6523 94.8223C71.8008 94.9707 71.9785 95.0859 72.1855 95.168C72.3965 95.2461 72.6289 95.2852 72.8828 95.2852C73.1289 95.2852 73.3555 95.2441 73.5625 95.1621C73.7695 95.0801 73.9473 94.9648 74.0957 94.8164C74.248 94.668 74.3652 94.4883 74.4473 94.2773C74.5332 94.0664 74.5762 93.832 74.5762 93.5742C74.5762 93.3398 74.5352 93.1211 74.4531 92.918C74.375 92.7109 74.2617 92.5293 74.1133 92.373C73.9648 92.2168 73.7871 92.0938 73.5801 92.0039C73.373 91.9141 73.1406 91.8691 72.8828 91.8691C72.6406 91.8691 72.416 91.9121 72.209 91.998C72.0059 92.0801 71.8281 92.1973 71.6758 92.3496C71.5273 92.498 71.4102 92.6777 71.3242 92.8887C71.2383 93.0957 71.1953 93.3242 71.1953 93.5742ZM71.4941 89.6777C71.4941 89.877 71.5293 90.0625 71.5996 90.2344C71.6738 90.4023 71.7734 90.5508 71.8984 90.6797C72.0273 90.8047 72.1758 90.9043 72.3438 90.9785C72.5117 91.0488 72.6914 91.084 72.8828 91.084C73.0742 91.084 73.2539 91.0469 73.4219 90.9727C73.5938 90.8984 73.7422 90.7988 73.8672 90.6738C73.9922 90.5449 74.0918 90.3965 74.166 90.2285C74.2402 90.0566 74.2773 89.873 74.2773 89.6777C74.2773 89.4746 74.2402 89.2871 74.166 89.1152C74.0957 88.9434 73.998 88.7949 73.873 88.6699C73.748 88.5449 73.5996 88.4473 73.4277 88.377C73.2598 88.3027 73.0781 88.2656 72.8828 88.2656C72.6758 88.2656 72.4863 88.3027 72.3145 88.377C72.1465 88.4512 72 88.5527 71.875 88.6816C71.7539 88.8066 71.6602 88.9551 71.5938 89.127C71.5273 89.2988 71.4941 89.4824 71.4941 89.6777Z" fill="#212020"/>
<path d="M48.9766 111.764C48.9766 112.467 48.9121 113.09 48.7832 113.633C48.6582 114.176 48.4746 114.635 48.2324 115.01C47.9941 115.381 47.6992 115.664 47.3477 115.859C47 116.051 46.6035 116.146 46.1582 116.146C45.7363 116.146 45.3594 116.055 45.0273 115.871C44.6992 115.684 44.4219 115.412 44.1953 115.057C43.9688 114.701 43.7969 114.266 43.6797 113.75C43.5625 113.23 43.5039 112.637 43.5039 111.969C43.5039 111.234 43.5645 110.586 43.6855 110.023C43.8105 109.461 43.9922 108.99 44.2305 108.611C44.4688 108.229 44.7637 107.941 45.1152 107.75C45.4707 107.555 45.877 107.457 46.334 107.457C48.0957 107.457 48.9766 108.893 48.9766 111.764ZM47.9922 111.857C47.9922 109.467 47.4238 108.271 46.2871 108.271C45.0879 108.271 44.4883 109.488 44.4883 111.922C44.4883 114.191 45.0762 115.326 46.252 115.326C47.4121 115.326 47.9922 114.17 47.9922 111.857ZM50.7754 116.129C50.5957 116.129 50.4414 116.064 50.3125 115.936C50.1875 115.807 50.125 115.652 50.125 115.473C50.125 115.293 50.1875 115.139 50.3125 115.01C50.4414 114.877 50.5957 114.811 50.7754 114.811C50.959 114.811 51.1152 114.877 51.2441 115.01C51.373 115.139 51.4375 115.293 51.4375 115.473C51.4375 115.652 51.373 115.807 51.2441 115.936C51.1152 116.064 50.959 116.129 50.7754 116.129ZM58.0469 111.764C58.0469 112.467 57.9824 113.09 57.8535 113.633C57.7285 114.176 57.5449 114.635 57.3027 115.01C57.0645 115.381 56.7695 115.664 56.418 115.859C56.0703 116.051 55.6738 116.146 55.2285 116.146C54.8066 116.146 54.4297 116.055 54.0977 115.871C53.7695 115.684 53.4922 115.412 53.2656 115.057C53.0391 114.701 52.8672 114.266 52.75 113.75C52.6328 113.23 52.5742 112.637 52.5742 111.969C52.5742 111.234 52.6348 110.586 52.7559 110.023C52.8809 109.461 53.0625 108.99 53.3008 108.611C53.5391 108.229 53.834 107.941 54.1855 107.75C54.541 107.555 54.9473 107.457 55.4043 107.457C57.166 107.457 58.0469 108.893 58.0469 111.764ZM57.0625 111.857C57.0625 109.467 56.4941 108.271 55.3574 108.271C54.1582 108.271 53.5586 109.488 53.5586 111.922C53.5586 114.191 54.1465 115.326 55.3223 115.326C56.4824 115.326 57.0625 114.17 57.0625 111.857ZM64.5156 111.764C64.5156 112.467 64.4512 113.09 64.3223 113.633C64.1973 114.176 64.0137 114.635 63.7715 115.01C63.5332 115.381 63.2383 115.664 62.8867 115.859C62.5391 116.051 62.1426 116.146 61.6973 116.146C61.2754 116.146 60.8984 116.055 60.5664 115.871C60.2383 115.684 59.9609 115.412 59.7344 115.057C59.5078 114.701 59.3359 114.266 59.2188 113.75C59.1016 113.23 59.043 112.637 59.043 111.969C59.043 111.234 59.1035 110.586 59.2246 110.023C59.3496 109.461 59.5312 108.99 59.7695 108.611C60.0078 108.229 60.3027 107.941 60.6543 107.75C61.0098 107.555 61.416 107.457 61.873 107.457C63.6348 107.457 64.5156 108.893 64.5156 111.764ZM63.5312 111.857C63.5312 109.467 62.9629 108.271 61.8262 108.271C60.627 108.271 60.0273 109.488 60.0273 111.922C60.0273 114.191 60.6152 115.326 61.791 115.326C62.9512 115.326 63.5312 114.17 63.5312 111.857Z" fill="#212020"/>
<path d="M47.043 132.035H43.8438V131.279H47.043V132.035ZM53.3887 132.621C53.3887 133 53.3164 133.346 53.1719 133.658C53.0312 133.967 52.8301 134.232 52.5684 134.455C52.3105 134.674 52 134.844 51.6367 134.965C51.2734 135.086 50.873 135.146 50.4355 135.146C49.6348 135.146 48.998 134.994 48.5254 134.689V133.658C49.0918 134.104 49.7402 134.326 50.4707 134.326C50.7637 134.326 51.0273 134.289 51.2617 134.215C51.5 134.141 51.7031 134.033 51.8711 133.893C52.043 133.752 52.1738 133.582 52.2637 133.383C52.3574 133.184 52.4043 132.959 52.4043 132.709C52.4043 131.611 51.623 131.062 50.0605 131.062H49.3633V130.248H50.0254C51.4082 130.248 52.0996 129.732 52.0996 128.701C52.0996 127.748 51.5723 127.271 50.5176 127.271C49.9238 127.271 49.3672 127.471 48.8477 127.869V126.938C49.3828 126.617 50.0195 126.457 50.7578 126.457C51.1094 126.457 51.4277 126.506 51.7129 126.604C51.998 126.701 52.2422 126.838 52.4453 127.014C52.6484 127.189 52.8047 127.4 52.9141 127.646C53.0273 127.893 53.084 128.164 53.084 128.461C53.084 129.566 52.5254 130.277 51.4082 130.594V130.617C51.6934 130.648 51.957 130.719 52.1992 130.828C52.4414 130.934 52.6504 131.072 52.8262 131.244C53.002 131.416 53.1387 131.619 53.2363 131.854C53.3379 132.084 53.3887 132.34 53.3887 132.621ZM55.5801 135.129C55.4004 135.129 55.2461 135.064 55.1172 134.936C54.9922 134.807 54.9297 134.652 54.9297 134.473C54.9297 134.293 54.9922 134.139 55.1172 134.01C55.2461 133.877 55.4004 133.811 55.5801 133.811C55.7637 133.811 55.9199 133.877 56.0488 134.01C56.1777 134.139 56.2422 134.293 56.2422 134.473C56.2422 134.652 56.1777 134.807 56.0488 134.936C55.9199 135.064 55.7637 135.129 55.5801 135.129ZM62.459 132.621C62.459 133 62.3867 133.346 62.2422 133.658C62.1016 133.967 61.9004 134.232 61.6387 134.455C61.3809 134.674 61.0703 134.844 60.707 134.965C60.3438 135.086 59.9434 135.146 59.5059 135.146C58.7051 135.146 58.0684 134.994 57.5957 134.689V133.658C58.1621 134.104 58.8105 134.326 59.541 134.326C59.834 134.326 60.0977 134.289 60.332 134.215C60.5703 134.141 60.7734 134.033 60.9414 133.893C61.1133 133.752 61.2441 133.582 61.334 133.383C61.4277 133.184 61.4746 132.959 61.4746 132.709C61.4746 131.611 60.6934 131.062 59.1309 131.062H58.4336V130.248H59.0957C60.4785 130.248 61.1699 129.732 61.1699 128.701C61.1699 127.748 60.6426 127.271 59.5879 127.271C58.9941 127.271 58.4375 127.471 57.918 127.869V126.938C58.4531 126.617 59.0898 126.457 59.8281 126.457C60.1797 126.457 60.498 126.506 60.7832 126.604C61.0684 126.701 61.3125 126.838 61.5156 127.014C61.7188 127.189 61.875 127.4 61.9844 127.646C62.0977 127.893 62.1543 128.164 62.1543 128.461C62.1543 129.566 61.5957 130.277 60.4785 130.594V130.617C60.7637 130.648 61.0273 130.719 61.2695 130.828C61.5117 130.934 61.7207 131.072 61.8965 131.244C62.0723 131.416 62.209 131.619 62.3066 131.854C62.4082 132.084 62.459 132.34 62.459 132.621ZM69.1387 132.24H64.9023C64.918 132.908 65.0977 133.424 65.4414 133.787C65.7852 134.15 66.2578 134.332 66.8594 134.332C67.5352 134.332 68.1562 134.109 68.7227 133.664V134.566C68.1953 134.949 67.498 135.141 66.6309 135.141C65.7832 135.141 65.1172 134.869 64.6328 134.326C64.1484 133.779 63.9062 133.012 63.9062 132.023C63.9062 131.09 64.1699 130.33 64.6973 129.744C65.2285 129.154 65.8867 128.859 66.6719 128.859C67.457 128.859 68.0645 129.113 68.4941 129.621C68.9238 130.129 69.1387 130.834 69.1387 131.736V132.24ZM68.1543 131.426C68.1504 130.871 68.0156 130.439 67.75 130.131C67.4883 129.822 67.123 129.668 66.6543 129.668C66.2012 129.668 65.8164 129.83 65.5 130.154C65.1836 130.479 64.9883 130.902 64.9141 131.426H68.1543ZM73.668 132.035H70.4688V131.279H73.668V132.035ZM74.957 132.656C74.957 132.434 74.9922 132.211 75.0625 131.988C75.1328 131.762 75.2324 131.551 75.3613 131.355C75.4941 131.16 75.6562 130.982 75.8477 130.822C76.043 130.662 76.2637 130.535 76.5098 130.441C76.1465 130.238 75.8574 129.979 75.6426 129.662C75.4277 129.342 75.3203 128.988 75.3203 128.602C75.3203 128.293 75.3789 128.008 75.4961 127.746C75.6172 127.484 75.7832 127.258 75.9941 127.066C76.2051 126.875 76.4551 126.727 76.7441 126.621C77.0332 126.512 77.3457 126.457 77.6816 126.457C78.0215 126.457 78.3359 126.512 78.625 126.621C78.9141 126.73 79.1641 126.881 79.375 127.072C79.5859 127.264 79.75 127.49 79.8672 127.752C79.9844 128.014 80.043 128.297 80.043 128.602C80.043 128.988 79.9355 129.342 79.7207 129.662C79.5059 129.979 79.2207 130.238 78.8652 130.441C79.1074 130.535 79.3242 130.662 79.5156 130.822C79.707 130.982 79.8672 131.16 79.9961 131.355C80.1289 131.551 80.2305 131.762 80.3008 131.988C80.3711 132.211 80.4062 132.434 80.4062 132.656C80.4062 133.023 80.3398 133.359 80.207 133.664C80.0742 133.969 79.8867 134.23 79.6445 134.449C79.4062 134.664 79.1191 134.832 78.7832 134.953C78.4512 135.074 78.084 135.135 77.6816 135.135C77.2832 135.135 76.918 135.074 76.5859 134.953C76.2539 134.832 75.9668 134.664 75.7246 134.449C75.4824 134.23 75.293 133.969 75.1562 133.664C75.0234 133.359 74.957 133.023 74.957 132.656ZM76 132.574C76 132.836 76.0391 133.072 76.1172 133.283C76.1992 133.494 76.3125 133.674 76.457 133.822C76.6055 133.971 76.7832 134.086 76.9902 134.168C77.2012 134.246 77.4336 134.285 77.6875 134.285C77.9336 134.285 78.1602 134.244 78.3672 134.162C78.5742 134.08 78.752 133.965 78.9004 133.816C79.0527 133.668 79.1699 133.488 79.252 133.277C79.3379 133.066 79.3809 132.832 79.3809 132.574C79.3809 132.34 79.3398 132.121 79.2578 131.918C79.1797 131.711 79.0664 131.529 78.918 131.373C78.7695 131.217 78.5918 131.094 78.3848 131.004C78.1777 130.914 77.9453 130.869 77.6875 130.869C77.4453 130.869 77.2207 130.912 77.0137 130.998C76.8105 131.08 76.6328 131.197 76.4805 131.35C76.332 131.498 76.2148 131.678 76.1289 131.889C76.043 132.096 76 132.324 76 132.574ZM76.2988 128.678C76.2988 128.877 76.334 129.062 76.4043 129.234C76.4785 129.402 76.5781 129.551 76.7031 129.68C76.832 129.805 76.9805 129.904 77.1484 129.979C77.3164 130.049 77.4961 130.084 77.6875 130.084C77.8789 130.084 78.0586 130.047 78.2266 129.973C78.3984 129.898 78.5469 129.799 78.6719 129.674C78.7969 129.545 78.8965 129.396 78.9707 129.229C79.0449 129.057 79.082 128.873 79.082 128.678C79.082 128.475 79.0449 128.287 78.9707 128.115C78.9004 127.943 78.8027 127.795 78.6777 127.67C78.5527 127.545 78.4043 127.447 78.2324 127.377C78.0645 127.303 77.8828 127.266 77.6875 127.266C77.4805 127.266 77.291 127.303 77.1191 127.377C76.9512 127.451 76.8047 127.553 76.6797 127.682C76.5586 127.807 76.4648 127.955 76.3984 128.127C76.332 128.299 76.2988 128.482 76.2988 128.678Z" fill="#212020"/>
<path d="M47.043 152.035H43.8438V151.279H47.043V152.035ZM53.793 152.334C53.793 152.744 53.7266 153.121 53.5938 153.465C53.4609 153.809 53.2773 154.105 53.043 154.355C52.8086 154.605 52.5293 154.801 52.2051 154.941C51.8809 155.078 51.5293 155.146 51.1504 155.146C50.7285 155.146 50.3496 155.059 50.0137 154.883C49.6816 154.707 49.3984 154.455 49.1641 154.127C48.9336 153.795 48.7578 153.391 48.6367 152.914C48.5156 152.438 48.4551 151.9 48.4551 151.303C48.4551 150.572 48.5352 149.91 48.6953 149.316C48.8594 148.719 49.0898 148.209 49.3867 147.787C49.6875 147.361 50.0488 147.033 50.4707 146.803C50.8926 146.572 51.3633 146.457 51.8828 146.457C52.4609 146.457 52.9258 146.537 53.2773 146.697V147.605C52.8438 147.383 52.3867 147.271 51.9062 147.271C51.5312 147.271 51.1934 147.355 50.8926 147.523C50.5918 147.691 50.334 147.93 50.1191 148.238C49.9043 148.543 49.7383 148.912 49.6211 149.346C49.5078 149.779 49.4512 150.262 49.4512 150.793H49.4746C49.8613 150.094 50.5 149.744 51.3906 149.744C51.7578 149.744 52.0879 149.807 52.3809 149.932C52.6777 150.057 52.9297 150.234 53.1367 150.465C53.3477 150.691 53.5098 150.963 53.623 151.279C53.7363 151.596 53.793 151.947 53.793 152.334ZM52.8086 152.457C52.8086 152.164 52.7715 151.9 52.6973 151.666C52.623 151.432 52.5156 151.232 52.375 151.068C52.2383 150.904 52.0684 150.779 51.8652 150.693C51.6621 150.604 51.4316 150.559 51.1738 150.559C50.9355 150.559 50.7148 150.604 50.5117 150.693C50.3086 150.783 50.1328 150.906 49.9844 151.062C49.8359 151.215 49.7188 151.395 49.6328 151.602C49.5508 151.805 49.5098 152.021 49.5098 152.252C49.5098 152.541 49.5508 152.812 49.6328 153.066C49.7148 153.316 49.8301 153.535 49.9785 153.723C50.127 153.91 50.3027 154.059 50.5059 154.168C50.7129 154.273 50.9414 154.326 51.1914 154.326C51.4336 154.326 51.6543 154.281 51.8535 154.191C52.0527 154.098 52.2227 153.969 52.3633 153.805C52.5039 153.641 52.6133 153.445 52.6914 153.219C52.7695 152.988 52.8086 152.734 52.8086 152.457ZM55.5801 155.129C55.4004 155.129 55.2461 155.064 55.1172 154.936C54.9922 154.807 54.9297 154.652 54.9297 154.473C54.9297 154.293 54.9922 154.139 55.1172 154.01C55.2461 153.877 55.4004 153.811 55.5801 153.811C55.7637 153.811 55.9199 153.877 56.0488 154.01C56.1777 154.139 56.2422 154.293 56.2422 154.473C56.2422 154.652 56.1777 154.807 56.0488 154.936C55.9199 155.064 55.7637 155.129 55.5801 155.129ZM62.793 147.154C62.6641 147.377 62.5078 147.654 62.3242 147.986C62.1445 148.318 61.9531 148.691 61.75 149.105C61.5469 149.52 61.3398 149.965 61.1289 150.441C60.918 150.918 60.7207 151.41 60.5371 151.918C60.3535 152.426 60.1914 152.941 60.0508 153.465C59.9141 153.984 59.8145 154.496 59.752 155H58.7207C58.791 154.5 58.8984 153.99 59.043 153.471C59.1914 152.947 59.3574 152.436 59.541 151.936C59.7285 151.432 59.9258 150.947 60.1328 150.482C60.3398 150.018 60.541 149.59 60.7363 149.199C60.9316 148.809 61.1094 148.465 61.2695 148.168C61.4336 147.867 61.5645 147.633 61.6621 147.465H57.4492V146.598H62.793V147.154ZM69.1387 152.24H64.9023C64.918 152.908 65.0977 153.424 65.4414 153.787C65.7852 154.15 66.2578 154.332 66.8594 154.332C67.5352 154.332 68.1562 154.109 68.7227 153.664V154.566C68.1953 154.949 67.498 155.141 66.6309 155.141C65.7832 155.141 65.1172 154.869 64.6328 154.326C64.1484 153.779 63.9062 153.012 63.9062 152.023C63.9062 151.09 64.1699 150.33 64.6973 149.744C65.2285 149.154 65.8867 148.859 66.6719 148.859C67.457 148.859 68.0645 149.113 68.4941 149.621C68.9238 150.129 69.1387 150.834 69.1387 151.736V152.24ZM68.1543 151.426C68.1504 150.871 68.0156 150.439 67.75 150.131C67.4883 149.822 67.123 149.668 66.6543 149.668C66.2012 149.668 65.8164 149.83 65.5 150.154C65.1836 150.479 64.9883 150.902 64.9141 151.426H68.1543ZM73.668 152.035H70.4688V151.279H73.668V152.035ZM74.957 152.656C74.957 152.434 74.9922 152.211 75.0625 151.988C75.1328 151.762 75.2324 151.551 75.3613 151.355C75.4941 151.16 75.6562 150.982 75.8477 150.822C76.043 150.662 76.2637 150.535 76.5098 150.441C76.1465 150.238 75.8574 149.979 75.6426 149.662C75.4277 149.342 75.3203 148.988 75.3203 148.602C75.3203 148.293 75.3789 148.008 75.4961 147.746C75.6172 147.484 75.7832 147.258 75.9941 147.066C76.2051 146.875 76.4551 146.727 76.7441 146.621C77.0332 146.512 77.3457 146.457 77.6816 146.457C78.0215 146.457 78.3359 146.512 78.625 146.621C78.9141 146.73 79.1641 146.881 79.375 147.072C79.5859 147.264 79.75 147.49 79.8672 147.752C79.9844 148.014 80.043 148.297 80.043 148.602C80.043 148.988 79.9355 149.342 79.7207 149.662C79.5059 149.979 79.2207 150.238 78.8652 150.441C79.1074 150.535 79.3242 150.662 79.5156 150.822C79.707 150.982 79.8672 151.16 79.9961 151.355C80.1289 151.551 80.2305 151.762 80.3008 151.988C80.3711 152.211 80.4062 152.434 80.4062 152.656C80.4062 153.023 80.3398 153.359 80.207 153.664C80.0742 153.969 79.8867 154.23 79.6445 154.449C79.4062 154.664 79.1191 154.832 78.7832 154.953C78.4512 155.074 78.084 155.135 77.6816 155.135C77.2832 155.135 76.918 155.074 76.5859 154.953C76.2539 154.832 75.9668 154.664 75.7246 154.449C75.4824 154.23 75.293 153.969 75.1562 153.664C75.0234 153.359 74.957 153.023 74.957 152.656ZM76 152.574C76 152.836 76.0391 153.072 76.1172 153.283C76.1992 153.494 76.3125 153.674 76.457 153.822C76.6055 153.971 76.7832 154.086 76.9902 154.168C77.2012 154.246 77.4336 154.285 77.6875 154.285C77.9336 154.285 78.1602 154.244 78.3672 154.162C78.5742 154.08 78.752 153.965 78.9004 153.816C79.0527 153.668 79.1699 153.488 79.252 153.277C79.3379 153.066 79.3809 152.832 79.3809 152.574C79.3809 152.34 79.3398 152.121 79.2578 151.918C79.1797 151.711 79.0664 151.529 78.918 151.373C78.7695 151.217 78.5918 151.094 78.3848 151.004C78.1777 150.914 77.9453 150.869 77.6875 150.869C77.4453 150.869 77.2207 150.912 77.0137 150.998C76.8105 151.08 76.6328 151.197 76.4805 151.35C76.332 151.498 76.2148 151.678 76.1289 151.889C76.043 152.096 76 152.324 76 152.574ZM76.2988 148.678C76.2988 148.877 76.334 149.062 76.4043 149.234C76.4785 149.402 76.5781 149.551 76.7031 149.68C76.832 149.805 76.9805 149.904 77.1484 149.979C77.3164 150.049 77.4961 150.084 77.6875 150.084C77.8789 150.084 78.0586 150.047 78.2266 149.973C78.3984 149.898 78.5469 149.799 78.6719 149.674C78.7969 149.545 78.8965 149.396 78.9707 149.229C79.0449 149.057 79.082 148.873 79.082 148.678C79.082 148.475 79.0449 148.287 78.9707 148.115C78.9004 147.943 78.8027 147.795 78.6777 147.67C78.5527 147.545 78.4043 147.447 78.2324 147.377C78.0645 147.303 77.8828 147.266 77.6875 147.266C77.4805 147.266 77.291 147.303 77.1191 147.377C76.9512 147.451 76.8047 147.553 76.6797 147.682C76.5586 147.807 76.4648 147.955 76.3984 148.127C76.332 148.299 76.2988 148.482 76.2988 148.678Z" fill="#212020"/>
<path d="M47.043 172.035H43.8438V171.279H47.043V172.035ZM52.0469 175H51.0859V167.74C51.0117 167.814 50.9023 167.9 50.7578 167.998C50.6172 168.092 50.457 168.186 50.2773 168.279C50.1016 168.373 49.9141 168.461 49.7148 168.543C49.5195 168.625 49.3281 168.689 49.1406 168.736V167.764C49.3516 167.705 49.5742 167.627 49.8086 167.529C50.0469 167.428 50.2793 167.316 50.5059 167.195C50.7363 167.07 50.9531 166.941 51.1562 166.809C51.3594 166.672 51.5352 166.539 51.6836 166.41H52.0469V175ZM60.0684 172.24H55.832C55.8477 172.908 56.0273 173.424 56.3711 173.787C56.7148 174.15 57.1875 174.332 57.7891 174.332C58.4648 174.332 59.0859 174.109 59.6523 173.664V174.566C59.125 174.949 58.4277 175.141 57.5605 175.141C56.7129 175.141 56.0469 174.869 55.5625 174.326C55.0781 173.779 54.8359 173.012 54.8359 172.023C54.8359 171.09 55.0996 170.33 55.627 169.744C56.1582 169.154 56.8164 168.859 57.6016 168.859C58.3867 168.859 58.9941 169.113 59.4238 169.621C59.8535 170.129 60.0684 170.834 60.0684 171.736V172.24ZM59.084 171.426C59.0801 170.871 58.9453 170.439 58.6797 170.131C58.418 169.822 58.0527 169.668 57.584 169.668C57.1309 169.668 56.7461 169.83 56.4297 170.154C56.1133 170.479 55.918 170.902 55.8438 171.426H59.084ZM64.5977 172.035H61.3984V171.279H64.5977V172.035ZM71.2773 167.154C71.1484 167.377 70.9922 167.654 70.8086 167.986C70.6289 168.318 70.4375 168.691 70.2344 169.105C70.0312 169.52 69.8242 169.965 69.6133 170.441C69.4023 170.918 69.2051 171.41 69.0215 171.918C68.8379 172.426 68.6758 172.941 68.5352 173.465C68.3984 173.984 68.2988 174.496 68.2363 175H67.2051C67.2754 174.5 67.3828 173.99 67.5273 173.471C67.6758 172.947 67.8418 172.436 68.0254 171.936C68.2129 171.432 68.4102 170.947 68.6172 170.482C68.8242 170.018 69.0254 169.59 69.2207 169.199C69.416 168.809 69.5938 168.465 69.7539 168.168C69.918 167.867 70.0488 167.633 70.1465 167.465H65.9336V166.598H71.2773V167.154Z" fill="#212020"/>
<rect x="33" y="101" width="20" height="20" transform="rotate(-180 33 101)" fill="#5CC38E"/>
<rect x="33" y="81" width="20" height="20" transform="rotate(-180 33 81)" fill="#298A48"/>
<rect x="33" y="61" width="20" height="20" transform="rotate(-180 33 61)" fill="#005824"/>
<rect x="33" y="121" width="20" height="20" transform="rotate(-180 33 121)" fill="#FFFBEB"/>
<rect x="33" y="141" width="20" height="20" transform="rotate(-180 33 141)" fill="#FD795C"/>
<rect x="33" y="161" width="20" height="20" transform="rotate(-180 33 161)" fill="#D61A35"/>
<rect x="33" y="181" width="20" height="20" transform="rotate(-180 33 181)" fill="#A30625"/>
</svg>
