<svg width="616" height="327" viewBox="0 0 616 327" fill="none" xmlns="http://www.w3.org/2000/svg">
<mask id="path-1-inside-1" fill="white">
<path fill-rule="evenodd" clip-rule="evenodd" d="M326.597 74.191C322.263 76.9372 316.962 76.9082 312.777 74.571C312.353 74.8997 311.909 75.2114 311.447 75.5045C303.516 80.5301 293.013 78.1751 287.988 70.2446C287.262 69.099 286.69 67.8997 286.266 66.671C285.294 68.0051 284.06 69.1821 282.581 70.1193C276.283 74.1102 267.942 72.2401 263.952 65.9423C259.961 59.6446 261.831 51.3039 268.129 47.313C271.094 45.4338 274.512 44.8541 277.716 45.4241C278.008 39.1283 281.264 33.0698 286.991 29.4401C296.321 23.5276 308.678 26.2981 314.59 35.6282C317.294 39.8947 318.182 44.7941 317.457 49.4208C322.554 48.6943 327.84 50.9312 330.774 55.5616C334.765 61.8594 332.895 70.2001 326.597 74.191Z"/>
</mask>
<path d="M312.777 74.571L314.727 71.0786C313.327 70.2966 311.595 70.4267 310.327 71.4092L312.777 74.571ZM286.266 66.671L290.048 65.3679C289.563 63.9587 288.334 62.9364 286.86 62.7153C285.386 62.4942 283.911 63.1109 283.034 64.3156L286.266 66.671ZM277.716 45.4241L277.015 49.3623C278.148 49.5639 279.314 49.2676 280.213 48.549C281.112 47.8305 281.658 46.7593 281.712 45.6095L277.716 45.4241ZM317.457 49.4208L313.506 48.8018C313.309 50.0548 313.719 51.3267 314.61 52.2296C315.5 53.1326 316.766 53.5597 318.022 53.3807L317.457 49.4208ZM310.827 78.0634C316.242 81.0874 323.116 81.1326 328.738 77.5697L324.456 70.8123C321.411 72.7419 317.683 72.729 314.727 71.0786L310.827 78.0634ZM313.588 78.8832C314.157 78.5226 314.704 78.1385 315.227 77.7327L310.327 71.4092C310.002 71.6609 309.662 71.9002 309.306 72.1257L313.588 78.8832ZM284.609 72.3857C290.817 82.1823 303.792 85.0913 313.588 78.8832L309.306 72.1257C303.241 75.9689 295.21 74.168 291.367 68.1035L284.609 72.3857ZM282.485 67.9742C283.009 69.4948 283.715 70.9755 284.609 72.3857L291.367 68.1035C290.808 67.2225 290.371 66.3047 290.048 65.3679L282.485 67.9742ZM283.034 64.3156C282.353 65.2496 281.487 66.0772 280.44 66.7406L284.722 73.498C286.633 72.2871 288.236 70.7606 289.499 69.0265L283.034 64.3156ZM280.44 66.7406C276.008 69.549 270.139 68.233 267.33 63.8012L260.573 68.0834C265.746 76.2472 276.558 78.6714 284.722 73.498L280.44 66.7406ZM267.33 63.8012C264.522 59.3695 265.838 53.5001 270.27 50.6917L265.987 43.9343C257.824 49.1077 255.399 59.9196 260.573 68.0834L267.33 63.8012ZM270.27 50.6917C272.358 49.3681 274.757 48.9604 277.015 49.3623L278.417 41.486C274.268 40.7478 269.829 41.4996 265.987 43.9343L270.27 50.6917ZM284.85 26.0614C277.974 30.4189 274.07 37.6956 273.72 45.2388L281.712 45.6095C281.946 40.5609 284.553 35.7208 289.133 32.8188L284.85 26.0614ZM317.969 33.4871C310.874 22.291 296.046 18.9664 284.85 26.0614L289.133 32.8188C296.597 28.0888 306.482 30.3052 311.212 37.7693L317.969 33.4871ZM321.409 50.0397C322.278 44.4908 321.212 38.6045 317.969 33.4871L311.212 37.7693C313.376 41.1849 314.086 45.0974 313.506 48.8018L321.409 50.0397ZM334.153 53.4205C330.346 47.4129 323.49 44.5204 316.893 45.4608L318.022 53.3807C321.618 52.8682 325.334 54.4495 327.395 57.7027L334.153 53.4205ZM328.738 77.5697C336.902 72.3963 339.326 61.5843 334.153 53.4205L327.395 57.7027C330.204 62.1345 328.888 68.0039 324.456 70.8123L328.738 77.5697Z" fill="#3D342F" mask="url(#path-1-inside-1)"/>
<circle cx="252.097" cy="68.7193" r="7.5" transform="rotate(57.6375 252.097 68.7193)" stroke="#3D342F" stroke-width="4"/>
<circle cx="351.729" cy="67.1442" r="7.5" transform="rotate(57.6375 351.729 67.1442)" stroke="#3D342F" stroke-width="4"/>
<circle cx="364.708" cy="57.7352" r="4.5" transform="rotate(57.6375 364.708 57.7352)" stroke="#3D342F" stroke-width="4"/>
<mask id="path-6-inside-2" fill="white">
<path fill-rule="evenodd" clip-rule="evenodd" d="M55.8844 120.226C60.8594 120.706 65.4175 118.076 67.631 113.924C72.2351 113.166 76.0471 109.758 77.2656 105.187C77.4819 105.223 77.7009 105.252 77.9225 105.273C83.1449 105.777 87.7871 101.952 88.2911 96.7297C88.795 91.5072 84.9699 86.8651 79.7475 86.3611C77.8405 86.1771 76.0108 86.5703 74.4318 87.398C72.181 84.9669 69.0638 83.3209 65.5066 82.9776C57.8104 82.235 50.9693 87.8719 50.2266 95.5682C50.1342 96.5264 50.1406 97.4714 50.2376 98.393C47.42 100.333 45.4468 103.457 45.0925 107.128C44.4559 113.725 49.2876 119.589 55.8844 120.226Z"/>
</mask>
<path d="M67.631 113.924L66.9809 109.977C65.7519 110.18 64.6874 110.943 64.1014 112.042L67.631 113.924ZM77.2656 105.187L77.9224 101.241C75.889 100.903 73.9315 102.165 73.4006 104.157L77.2656 105.187ZM74.4318 87.398L71.4966 90.1155C72.7242 91.4415 74.6884 91.7797 76.2889 90.9408L74.4318 87.398ZM50.2376 98.393L52.5057 101.688C53.713 100.857 54.369 99.432 54.2156 97.9744L50.2376 98.393ZM64.1014 112.042C62.6218 114.817 59.579 116.564 56.2686 116.244L55.5002 124.207C62.1398 124.848 68.2133 121.334 71.1607 115.806L64.1014 112.042ZM73.4006 104.157C72.5908 107.195 70.0472 109.472 66.9809 109.977L68.2812 117.871C74.423 116.859 79.5034 112.322 81.1307 106.217L73.4006 104.157ZM78.3067 101.292C78.1765 101.279 78.0484 101.262 77.9224 101.241L76.6088 109.133C76.9154 109.184 77.2254 109.225 77.5383 109.255L78.3067 101.292ZM84.3096 96.3455C84.0178 99.369 81.3302 101.584 78.3067 101.292L77.5383 109.255C84.9597 109.971 91.5564 104.535 92.2726 97.1139L84.3096 96.3455ZM79.3633 90.3426C82.3868 90.6344 84.6013 93.322 84.3096 96.3455L92.2726 97.1139C92.9887 89.6925 87.553 83.0958 80.1317 82.3796L79.3633 90.3426ZM76.2889 90.9408C77.2003 90.463 78.2534 90.2355 79.3633 90.3426L80.1317 82.3796C77.4275 82.1187 74.8213 82.6776 72.5747 83.8552L76.2889 90.9408ZM65.1224 86.9591C67.6658 87.2046 69.8866 88.3765 71.4966 90.1155L77.367 84.6805C74.4755 81.5574 70.4617 79.4372 65.8908 78.9961L65.1224 86.9591ZM54.2081 95.9524C54.7386 90.4551 59.6251 86.4287 65.1224 86.9591L65.8908 78.9961C55.9957 78.0413 47.2 85.2888 46.2451 95.184L54.2081 95.9524ZM54.2156 97.9744C54.1465 97.3181 54.1416 96.642 54.2081 95.9524L46.2451 95.184C46.1267 96.4108 46.1346 97.6248 46.2595 98.8117L54.2156 97.9744ZM49.074 107.513C49.3101 105.066 50.6193 102.986 52.5057 101.688L47.9695 95.0982C44.2207 97.6789 41.5835 101.848 41.111 106.744L49.074 107.513ZM56.2686 116.244C51.8708 115.82 48.6496 111.911 49.074 107.513L41.111 106.744C40.2622 115.54 46.7045 123.358 55.5002 124.207L56.2686 116.244Z" fill="#3D342F" mask="url(#path-6-inside-2)"/>
<circle cx="37.2562" cy="99.8421" r="4.5" transform="rotate(-84.4881 37.2562 99.8421)" stroke="#3D342F" stroke-width="4"/>
<circle cx="96.0447" cy="94.464" r="4.5" transform="rotate(-84.4881 96.0447 94.464)" stroke="#3D342F" stroke-width="4"/>
<circle cx="185.911" cy="110.911" r="4.5" transform="rotate(-84.4881 185.911 110.911)" stroke="#3D342F" stroke-width="4"/>
<circle cx="443.911" cy="86.9114" r="4.5" transform="rotate(-84.4881 443.911 86.9114)" stroke="#3D342F" stroke-width="4"/>
<mask id="path-12-inside-3" fill="white">
<path fill-rule="evenodd" clip-rule="evenodd" d="M528.935 112.131C532.32 115.808 537.471 116.89 541.889 115.274C545.825 117.781 550.938 117.786 554.895 115.194C555.032 115.365 555.176 115.532 555.327 115.696C558.881 119.556 564.891 119.803 568.751 116.249C572.61 112.695 572.858 106.685 569.304 102.826C568.006 101.416 566.381 100.489 564.652 100.052C564.598 96.739 563.374 93.4332 560.953 90.8043C555.715 85.1165 546.858 84.7515 541.171 89.9891C540.462 90.6412 539.837 91.3494 539.294 92.1006C535.901 91.6657 532.347 92.6768 529.634 95.1753C524.758 99.6646 524.445 107.256 528.935 112.131Z"/>
</mask>
<path d="M541.889 115.274L544.038 111.9C542.988 111.231 541.685 111.09 540.515 111.517L541.889 115.274ZM554.895 115.194L558.017 112.693C556.728 111.084 554.428 110.718 552.703 111.848L554.895 115.194ZM564.652 100.052L560.653 100.118C560.683 101.924 561.92 103.487 563.672 103.93L564.652 100.052ZM539.294 92.1006L538.786 96.0682C540.239 96.2545 541.679 95.6309 542.537 94.4427L539.294 92.1006ZM540.515 111.517C537.562 112.598 534.13 111.868 531.877 109.422L525.992 114.841C530.511 119.748 537.379 121.182 543.263 119.031L540.515 111.517ZM552.703 111.848C550.073 113.57 546.659 113.57 544.038 111.9L539.74 118.648C544.991 121.992 551.802 122.002 557.087 118.54L552.703 111.848ZM558.269 112.986C558.181 112.89 558.097 112.792 558.017 112.693L551.773 117.695C551.968 117.937 552.171 118.174 552.384 118.406L558.269 112.986ZM566.041 113.307C563.806 115.364 560.327 115.221 558.269 112.986L552.384 118.406C557.435 123.89 565.975 124.242 571.46 119.192L566.041 113.307ZM566.361 105.535C568.419 107.77 568.275 111.249 566.041 113.307L571.46 119.192C576.945 114.141 577.297 105.601 572.246 100.116L566.361 105.535ZM563.672 103.93C564.67 104.182 565.606 104.715 566.361 105.535L572.246 100.116C570.406 98.1176 568.092 96.7952 565.632 96.1736L563.672 103.93ZM558.01 93.5139C559.741 95.3936 560.614 97.7481 560.653 100.118L568.652 99.9856C568.581 95.73 567.006 91.4728 563.895 88.0947L558.01 93.5139ZM543.88 92.9315C547.943 89.1904 554.269 89.4511 558.01 93.5139L563.895 88.0947C557.161 80.7818 545.774 80.3125 538.461 87.0466L543.88 92.9315ZM542.537 94.4427C542.923 93.9078 543.37 93.4009 543.88 92.9315L538.461 87.0466C537.554 87.8815 536.75 88.791 536.052 89.7585L542.537 94.4427ZM532.343 98.1177C534.151 96.4529 536.514 95.777 538.786 96.0682L539.803 88.1331C535.289 87.5544 530.543 88.9007 526.924 92.2328L532.343 98.1177ZM531.877 109.422C528.884 106.172 529.093 101.111 532.343 98.1177L526.924 92.2328C520.424 98.2186 520.006 108.341 525.992 114.841L531.877 109.422Z" fill="#3D342F" mask="url(#path-12-inside-3)"/>
<circle cx="528.657" cy="84.5194" r="4.5" transform="rotate(-42.6401 528.657 84.5194)" stroke="#3D342F" stroke-width="4"/>
<circle cx="576.038" cy="119.734" r="4.5" transform="rotate(-42.6401 576.038 119.734)" stroke="#3D342F" stroke-width="4"/>
<path d="M0 197L616 197" stroke="#3D342F" stroke-width="4"/>
<path d="M21.898 188.54C17.794 188.54 14.41 187.73 11.746 186.11C9.118 184.454 7.156 182.15 5.86 179.198C4.6 176.21 3.97 172.736 3.97 168.776C3.97 164.888 4.69 161.45 6.13 158.462C7.57 155.474 9.676 153.134 12.448 151.442C15.22 149.75 18.604 148.904 22.6 148.904C24.508 148.904 26.434 149.12 28.378 149.552C30.358 149.948 32.23 150.578 33.994 151.442L31.294 158.03C29.998 157.418 28.612 156.896 27.136 156.464C25.696 155.996 24.148 155.762 22.492 155.762C19.396 155.762 16.948 156.932 15.148 159.272C13.384 161.576 12.502 164.762 12.502 168.83C12.502 172.898 13.348 176.066 15.04 178.334C16.768 180.566 19.36 181.682 22.816 181.682C24.508 181.682 26.128 181.484 27.676 181.088C29.26 180.692 30.844 180.188 32.428 179.576V186.596C29.368 187.892 25.858 188.54 21.898 188.54ZM44.7185 188.54C42.1265 188.54 39.9665 187.784 38.2385 186.272C36.5105 184.76 35.6465 182.438 35.6465 179.306C35.6465 173.222 40.0925 170.036 48.9845 169.748L53.8985 169.586V168.668C53.8985 166.904 53.4845 165.68 52.6565 164.996C51.8645 164.276 50.7665 163.916 49.3625 163.916C48.0305 163.916 46.6625 164.132 45.2585 164.564C43.8545 164.996 42.4685 165.518 41.1005 166.13L38.7245 160.568C40.2725 159.776 42.0365 159.146 44.0165 158.678C46.0325 158.21 48.2285 157.976 50.6045 157.976C54.2765 157.976 57.0845 158.858 59.0285 160.622C61.0085 162.35 61.9985 164.924 61.9985 168.344V188H56.3285L54.7625 184.004H54.5465C53.2505 185.588 51.9005 186.74 50.4965 187.46C49.1285 188.18 47.2025 188.54 44.7185 188.54ZM47.8505 182.6C49.5425 182.6 50.9645 182.096 52.1165 181.088C53.3045 180.08 53.8985 178.64 53.8985 176.768V174.338L50.8205 174.5C48.2285 174.572 46.4285 174.986 45.4205 175.742C44.4485 176.498 43.9625 177.56 43.9625 178.928C43.9625 180.188 44.3045 181.124 44.9885 181.736C45.7085 182.312 46.6625 182.6 47.8505 182.6ZM67.5947 188V158.516H73.8047L74.9927 163.484H75.3707C76.2347 161.972 77.4047 160.676 78.8807 159.596C80.3927 158.516 82.0667 157.976 83.9027 157.976C84.4427 157.976 85.0187 158.012 85.6307 158.084C86.2427 158.156 86.7467 158.228 87.1427 158.3L86.3327 165.914C85.9367 165.806 85.4687 165.734 84.9287 165.698C84.3887 165.626 83.7407 165.59 82.9847 165.59C81.8687 165.59 80.7527 165.824 79.6367 166.292C78.5207 166.76 77.5847 167.534 76.8287 168.614C76.1087 169.694 75.7487 171.17 75.7487 173.042V188H67.5947ZM105.895 188.54C103.735 188.54 102.025 188.162 100.765 187.406C99.541 186.614 98.533 185.75 97.741 184.814H97.201L95.851 188H89.587V146.96H97.741V156.518C97.741 157.634 97.705 158.696 97.633 159.704C97.561 160.712 97.489 161.594 97.417 162.35H97.741C98.533 161.126 99.595 160.1 100.927 159.272C102.259 158.408 103.987 157.976 106.111 157.976C109.387 157.976 112.051 159.272 114.103 161.864C116.155 164.42 117.181 168.2 117.181 173.204C117.181 178.244 116.137 182.06 114.049 184.652C111.997 187.244 109.279 188.54 105.895 188.54ZM103.573 181.952C105.337 181.952 106.669 181.196 107.569 179.684C108.469 178.172 108.919 175.976 108.919 173.096C108.919 167.336 107.101 164.456 103.465 164.456C101.413 164.456 99.937 165.104 99.037 166.4C98.173 167.696 97.741 169.73 97.741 172.502V173.474C97.741 176.282 98.155 178.406 98.983 179.846C99.847 181.25 101.377 181.952 103.573 181.952ZM134.398 188.54C131.626 188.54 129.16 187.946 127 186.758C124.876 185.57 123.202 183.842 121.978 181.574C120.754 179.27 120.142 176.48 120.142 173.204C120.142 168.308 121.42 164.546 123.976 161.918C126.568 159.29 130.096 157.976 134.56 157.976C137.332 157.976 139.78 158.57 141.904 159.758C144.028 160.91 145.702 162.62 146.926 164.888C148.15 167.156 148.762 169.928 148.762 173.204C148.762 178.1 147.466 181.88 144.874 184.544C142.318 187.208 138.826 188.54 134.398 188.54ZM134.506 182.33C136.594 182.33 138.106 181.538 139.042 179.954C139.978 178.334 140.446 176.084 140.446 173.204C140.446 170.288 139.978 168.056 139.042 166.508C138.106 164.96 136.576 164.186 134.452 164.186C132.328 164.186 130.798 164.96 129.862 166.508C128.926 168.056 128.458 170.288 128.458 173.204C128.458 176.084 128.926 178.334 129.862 179.954C130.798 181.538 132.346 182.33 134.506 182.33ZM153.136 188V158.516H159.4L160.534 162.458H160.858C162.802 159.47 165.844 157.976 169.984 157.976C173.224 157.976 175.78 158.84 177.652 160.568C179.524 162.26 180.46 164.996 180.46 168.776V188H172.36V170.828C172.36 166.58 170.776 164.456 167.608 164.456C165.16 164.456 163.486 165.302 162.586 166.994C161.722 168.65 161.29 171.044 161.29 174.176V188H153.136ZM198.613 188V149.444H210.439C220.483 149.444 225.505 153.188 225.505 160.676C225.505 163.304 224.839 165.446 223.507 167.102C222.175 168.758 220.519 170.054 218.539 170.99L229.501 188H220.051L211.465 173.204H206.875V188H198.613ZM206.875 166.832H210.277C212.473 166.832 214.165 166.382 215.353 165.482C216.541 164.582 217.135 163.106 217.135 161.054C217.135 159.326 216.577 158.03 215.461 157.166C214.381 156.302 212.653 155.87 210.277 155.87H206.875V166.832ZM244.85 188.54C241.934 188.54 239.342 188 237.074 186.92C234.842 185.804 233.078 184.13 231.782 181.898C230.486 179.666 229.838 176.858 229.838 173.474C229.838 168.326 231.116 164.456 233.672 161.864C236.264 159.272 239.648 157.976 243.824 157.976C247.928 157.976 251.15 159.128 253.49 161.432C255.866 163.736 257.054 167.048 257.054 171.368V175.31H238.1C238.208 177.542 238.892 179.306 240.152 180.602C241.448 181.862 243.302 182.492 245.714 182.492C247.55 182.492 249.224 182.312 250.736 181.952C252.248 181.592 253.796 181.052 255.38 180.332V186.434C253.94 187.154 252.41 187.676 250.79 188C249.17 188.36 247.19 188.54 244.85 188.54ZM238.316 169.856H249.44C249.44 168.092 248.99 166.634 248.09 165.482C247.19 164.33 245.84 163.754 244.04 163.754C242.42 163.754 241.088 164.276 240.044 165.32C239.036 166.328 238.46 167.84 238.316 169.856ZM268.593 188.54C266.001 188.54 263.841 187.784 262.113 186.272C260.385 184.76 259.521 182.438 259.521 179.306C259.521 173.222 263.967 170.036 272.859 169.748L277.773 169.586V168.668C277.773 166.904 277.359 165.68 276.531 164.996C275.739 164.276 274.641 163.916 273.237 163.916C271.905 163.916 270.537 164.132 269.133 164.564C267.729 164.996 266.343 165.518 264.975 166.13L262.599 160.568C264.147 159.776 265.911 159.146 267.891 158.678C269.907 158.21 272.103 157.976 274.479 157.976C278.151 157.976 280.959 158.858 282.903 160.622C284.883 162.35 285.873 164.924 285.873 168.344V188H280.203L278.637 184.004H278.421C277.125 185.588 275.775 186.74 274.371 187.46C273.003 188.18 271.077 188.54 268.593 188.54ZM271.725 182.6C273.417 182.6 274.839 182.096 275.991 181.088C277.179 180.08 277.773 178.64 277.773 176.768V174.338L274.695 174.5C272.103 174.572 270.303 174.986 269.295 175.742C268.323 176.498 267.837 177.56 267.837 178.928C267.837 180.188 268.179 181.124 268.863 181.736C269.583 182.312 270.537 182.6 271.725 182.6ZM300.163 188.54C298.075 188.54 296.239 188.396 294.655 188.108C293.071 187.856 291.541 187.424 290.065 186.812V180.062C291.649 180.818 293.341 181.412 295.141 181.844C296.977 182.276 298.579 182.492 299.947 182.492C301.603 182.492 302.791 182.258 303.511 181.79C304.267 181.322 304.645 180.692 304.645 179.9C304.645 179.36 304.447 178.874 304.051 178.442C303.691 178.01 303.025 177.56 302.053 177.092C301.117 176.624 299.767 176.048 298.003 175.364C295.375 174.32 293.377 173.168 292.009 171.908C290.677 170.612 290.011 168.74 290.011 166.292C290.011 163.556 291.073 161.486 293.197 160.082C295.357 158.678 298.201 157.976 301.729 157.976C303.601 157.976 305.365 158.174 307.021 158.57C308.677 158.966 310.351 159.524 312.043 160.244L309.667 165.806C308.299 165.194 306.895 164.69 305.455 164.294C304.015 163.898 302.737 163.7 301.621 163.7C299.029 163.7 297.733 164.42 297.733 165.86C297.733 166.4 297.913 166.868 298.273 167.264C298.669 167.624 299.335 168.02 300.271 168.452C301.243 168.884 302.593 169.442 304.321 170.126C306.085 170.846 307.561 171.584 308.749 172.34C309.937 173.096 310.837 174.032 311.449 175.148C312.061 176.228 312.367 177.614 312.367 179.306C312.367 182.114 311.359 184.364 309.343 186.056C307.363 187.712 304.303 188.54 300.163 188.54ZM330.022 188.54C327.106 188.54 324.514 188 322.246 186.92C320.014 185.804 318.25 184.13 316.954 181.898C315.658 179.666 315.01 176.858 315.01 173.474C315.01 168.326 316.288 164.456 318.844 161.864C321.436 159.272 324.82 157.976 328.996 157.976C333.1 157.976 336.322 159.128 338.662 161.432C341.038 163.736 342.226 167.048 342.226 171.368V175.31H323.272C323.38 177.542 324.064 179.306 325.324 180.602C326.62 181.862 328.474 182.492 330.886 182.492C332.722 182.492 334.396 182.312 335.908 181.952C337.42 181.592 338.968 181.052 340.552 180.332V186.434C339.112 187.154 337.582 187.676 335.962 188C334.342 188.36 332.362 188.54 330.022 188.54ZM323.488 169.856H334.612C334.612 168.092 334.162 166.634 333.262 165.482C332.362 164.33 331.012 163.754 329.212 163.754C327.592 163.754 326.26 164.276 325.216 165.32C324.208 166.328 323.632 167.84 323.488 169.856ZM353.765 188.54C351.173 188.54 349.013 187.784 347.285 186.272C345.557 184.76 344.693 182.438 344.693 179.306C344.693 173.222 349.139 170.036 358.031 169.748L362.945 169.586V168.668C362.945 166.904 362.531 165.68 361.703 164.996C360.911 164.276 359.813 163.916 358.409 163.916C357.077 163.916 355.709 164.132 354.305 164.564C352.901 164.996 351.515 165.518 350.147 166.13L347.771 160.568C349.319 159.776 351.083 159.146 353.063 158.678C355.079 158.21 357.275 157.976 359.651 157.976C363.323 157.976 366.131 158.858 368.075 160.622C370.055 162.35 371.045 164.924 371.045 168.344V188H365.375L363.809 184.004H363.593C362.297 185.588 360.947 186.74 359.543 187.46C358.175 188.18 356.249 188.54 353.765 188.54ZM356.897 182.6C358.589 182.6 360.011 182.096 361.163 181.088C362.351 180.08 362.945 178.64 362.945 176.768V174.338L359.867 174.5C357.275 174.572 355.475 174.986 354.467 175.742C353.495 176.498 353.009 177.56 353.009 178.928C353.009 180.188 353.351 181.124 354.035 181.736C354.755 182.312 355.709 182.6 356.897 182.6ZM376.641 188V158.516H382.851L384.039 163.484H384.417C385.281 161.972 386.451 160.676 387.927 159.596C389.439 158.516 391.113 157.976 392.949 157.976C393.489 157.976 394.065 158.012 394.677 158.084C395.289 158.156 395.793 158.228 396.189 158.3L395.379 165.914C394.983 165.806 394.515 165.734 393.975 165.698C393.435 165.626 392.787 165.59 392.031 165.59C390.915 165.59 389.799 165.824 388.683 166.292C387.567 166.76 386.631 167.534 385.875 168.614C385.155 169.694 384.795 171.17 384.795 173.042V188H376.641ZM411.486 188.54C408.642 188.54 406.14 188.018 403.98 186.974C401.856 185.894 400.2 184.238 399.012 182.006C397.824 179.774 397.23 176.912 397.23 173.42C397.23 169.82 397.878 166.886 399.174 164.618C400.47 162.314 402.234 160.64 404.466 159.596C406.698 158.516 409.236 157.976 412.08 157.976C413.772 157.976 415.392 158.156 416.94 158.516C418.488 158.876 419.856 159.362 421.044 159.974L418.614 166.13C417.534 165.662 416.436 165.284 415.32 164.996C414.24 164.672 413.16 164.51 412.08 164.51C409.992 164.51 408.372 165.248 407.22 166.724C406.104 168.2 405.546 170.414 405.546 173.366C405.546 176.282 406.104 178.442 407.22 179.846C408.372 181.25 409.956 181.952 411.972 181.952C413.484 181.952 414.942 181.754 416.346 181.358C417.75 180.926 419.046 180.368 420.234 179.684V186.326C419.082 187.01 417.804 187.55 416.4 187.946C415.032 188.342 413.394 188.54 411.486 188.54ZM424.317 188V146.96H432.471V155.222C432.471 156.842 432.435 158.264 432.363 159.488C432.291 160.676 432.201 161.612 432.093 162.296H432.525C433.497 160.784 434.703 159.686 436.143 159.002C437.619 158.318 439.257 157.976 441.057 157.976C444.225 157.976 446.781 158.84 448.725 160.568C450.669 162.26 451.641 164.996 451.641 168.776V188H443.487V170.828C443.487 166.58 441.921 164.456 438.789 164.456C436.377 164.456 434.721 165.302 433.821 166.994C432.921 168.65 432.471 171.044 432.471 174.176V188H424.317ZM476.652 188V156.302H466.23V149.444H495.336V156.302H484.914V188H476.652ZM498.152 188V158.516H504.362L505.55 163.484H505.928C506.792 161.972 507.962 160.676 509.438 159.596C510.95 158.516 512.624 157.976 514.46 157.976C515 157.976 515.576 158.012 516.188 158.084C516.8 158.156 517.304 158.228 517.7 158.3L516.89 165.914C516.494 165.806 516.026 165.734 515.486 165.698C514.946 165.626 514.298 165.59 513.542 165.59C512.426 165.59 511.31 165.824 510.194 166.292C509.078 166.76 508.142 167.534 507.386 168.614C506.666 169.694 506.306 171.17 506.306 173.042V188H498.152ZM533.752 188.54C530.836 188.54 528.244 188 525.976 186.92C523.744 185.804 521.98 184.13 520.684 181.898C519.388 179.666 518.74 176.858 518.74 173.474C518.74 168.326 520.018 164.456 522.574 161.864C525.166 159.272 528.55 157.976 532.726 157.976C536.83 157.976 540.052 159.128 542.392 161.432C544.768 163.736 545.956 167.048 545.956 171.368V175.31H527.002C527.11 177.542 527.794 179.306 529.054 180.602C530.35 181.862 532.204 182.492 534.616 182.492C536.452 182.492 538.126 182.312 539.638 181.952C541.15 181.592 542.698 181.052 544.282 180.332V186.434C542.842 187.154 541.312 187.676 539.692 188C538.072 188.36 536.092 188.54 533.752 188.54ZM527.218 169.856H538.342C538.342 168.092 537.892 166.634 536.992 165.482C536.092 164.33 534.742 163.754 532.942 163.754C531.322 163.754 529.99 164.276 528.946 165.32C527.938 166.328 527.362 167.84 527.218 169.856ZM550.205 188V158.516H556.469L557.603 162.458H557.927C559.871 159.47 562.913 157.976 567.053 157.976C570.293 157.976 572.849 158.84 574.721 160.568C576.593 162.26 577.529 164.996 577.529 168.776V188H569.429V170.828C569.429 166.58 567.845 164.456 564.677 164.456C562.229 164.456 560.555 165.302 559.655 166.994C558.791 168.65 558.359 171.044 558.359 174.176V188H550.205ZM592.832 188.54C589.556 188.54 586.892 187.262 584.84 184.706C582.788 182.114 581.762 178.316 581.762 173.312C581.762 168.236 582.806 164.42 584.894 161.864C586.982 159.272 589.718 157.976 593.102 157.976C595.19 157.976 596.882 158.39 598.178 159.218C599.474 160.046 600.536 161.072 601.364 162.296H601.634C601.526 161.648 601.418 160.748 601.31 159.596C601.238 158.408 601.202 157.328 601.202 156.356V146.96H609.41V188H603.146L601.526 184.166H601.202C600.446 185.39 599.402 186.434 598.07 187.298C596.738 188.126 594.992 188.54 592.832 188.54ZM595.694 182.006C597.89 182.006 599.438 181.376 600.338 180.116C601.238 178.82 601.706 176.858 601.742 174.23V173.366C601.742 170.522 601.31 168.344 600.446 166.832C599.582 165.32 597.98 164.564 595.64 164.564C593.876 164.564 592.49 165.32 591.482 166.832C590.51 168.344 590.024 170.54 590.024 173.42C590.024 176.3 590.51 178.46 591.482 179.9C592.49 181.304 593.894 182.006 595.694 182.006Z" fill="#3D342F"/>
<path d="M20 218C31.0457 218 40 209.046 40 198H0C0 209.046 8.9543 218 20 218Z" fill="#3D342F"/>
<path d="M600 213C608.837 213 616 205.837 616 197H584C584 205.837 591.163 213 600 213Z" fill="#3D342F"/>
<path d="M66.2167 198C64.3007 212.251 74.2641 241.061 129.446 242.297C139.3 253.629 151.617 260.325 182 258.78" stroke="#3D342F" stroke-width="4"/>
<path d="M574.798 197C576.582 213.82 567.306 247.826 515.93 249.285C506.755 262.66 495.288 270.564 467 268.74" stroke="#3D342F" stroke-width="4"/>
<path d="M398.172 231.889C393.725 247.759 374.23 275.791 331.82 260.967C319.645 270.256 307.52 273.844 285.091 263.291" stroke="#3D342F" stroke-width="4"/>
<circle cx="182" cy="312" r="15" fill="#3D342F"/>
<circle cx="419" cy="292" r="15" fill="#3D342F"/>
<circle cx="323" cy="305" r="6" fill="#3D342F"/>
<circle cx="141" cy="292" r="5" fill="#3D342F"/>
<circle cx="462" cy="304" r="5" fill="#3D342F"/>
<circle cx="445" cy="264" r="5" fill="#3D342F"/>
<circle cx="230" cy="315" r="6" stroke="#3D342F" stroke-width="4"/>
<circle cx="389" cy="311" r="5" stroke="#3D342F" stroke-width="4"/>
<circle cx="206" cy="234" r="4" stroke="#3D342F" stroke-width="4"/>
</svg>
